<?xml version="1.0" encoding="utf-8"?>
<!-- Generator: Adobe Illustrator 25.2.3, SVG Export Plug-In . SVG Version: 6.00 Build 0)  -->
<svg version="1.1" id="Layer_1" xmlns="http://www.w3.org/2000/svg" xmlns:xlink="http://www.w3.org/1999/xlink" x="0px" y="0px"
	 width="243px" height="133px" viewBox="0 0 243 133" style="enable-background:new 0 0 243 133;" xml:space="preserve">
<style type="text/css">
	.st0{fill:#FFFFFF;}
	.st1{fill:#004A76;}
	.st2{fill:#007E9C;}
</style>
<path class="st0" d="M211,19.5H67.83h-23.4H34c-7.44,0-13.5,6.06-13.5,13.5v26.53v12.94V99c0,7.44,6.06,13.5,13.5,13.5h26h7.83H80h9
	h88.42l21.77,11.03l5.25-11.03H211c7.44,0,13.5-6.06,13.5-13.5V33C224.5,25.56,218.44,19.5,211,19.5z"/>
<path class="st1" d="M68.67,107.5H34c-5.79,0-10.5-4.71-10.5-10.5V61.11c-1.09-0.42-2.09-0.94-3-1.58V99c0,7.44,6.06,13.5,13.5,13.5
	h33.83L68.67,107.5z"/>
<path class="st1" d="M211,19.5H44.43c0.9,0.86,1.66,1.87,2.29,3H209c5.79,0,10.5,4.71,10.5,10.5v64c0,5.79-4.71,10.5-10.5,10.5
	h-6.45l-4.74,9.97l-19.67-9.97H80.86l-0.86,5h97.42l21.77,11.03l5.25-11.03H211c7.44,0,13.5-6.06,13.5-13.5V33
	C224.5,25.56,218.44,19.5,211,19.5z"/>
<g>
	<path class="st1" d="M46.22,31.05c0,1.02-0.06,1.86-0.12,2.4l-8.82,0.54c0.06-0.9,0.06-1.98,0.06-2.94c0-3.42-1.08-5.64-3.9-5.64
		c-2.7,0-4.68,2.64-5.82,7.5c-1.2,4.86-1.74,9.06-1.74,12.66c0,4.8,1.44,7.02,4.08,7.02c3.06,0,4.86-2.46,6.06-7.98l8.46,1.5
		c-1.8,9.18-7.02,13.62-14.52,13.62c-8.7,0-13.38-5.58-13.38-15.6c0-4.62,0.78-9.18,2.34-13.56c3.12-8.82,8.46-12.3,15.3-12.3
		C41.6,18.27,46.22,22.89,46.22,31.05z"/>
	<path class="st1" d="M70.48,73.59l-8.04,2.1c-0.9-4.32-2.46-5.28-4.56-5.28c-2.34,0-4.2,1.68-4.2,4.08c0,1.98,0.12,2.76,6.42,5.94
		c2.7,1.38,4.68,2.58,5.7,3.54c2.1,1.92,3.36,4.2,3.36,7.56c0,2.4-0.66,4.8-1.8,6.96c-2.4,4.5-6.72,6.24-12.42,6.24
		c-8.1,0-12.78-4.02-13.74-12l8.1-1.5c1.02,4.74,2.64,6.36,5.94,6.36c3.18,0,4.98-1.68,4.98-4.38c0-2.46-1.02-3.78-5.52-5.82
		c-7.38-3.36-9.6-6.66-9.6-11.16c0-6.36,4.26-12.96,13.02-12.96C64.78,63.27,69.04,66.81,70.48,73.59z"/>
</g>
<g>
	<path class="st2" d="M68.18,39.59c0,0.68-0.05,1.3-0.52,4.28l-1.72,10.54c-0.21,1.41-0.31,2.19-0.31,2.97
		c0,0.57,0.05,1.15,0.16,1.62h-6.89c-0.16-0.63-0.21-0.94-0.21-1.51c0-0.52,0.05-0.89,0.26-1.88c-1.67,3.08-3.76,4.02-6.63,4.02
		c-4.02,0-6.16-2.5-6.16-6.52c0-6.16,4.49-9.86,14.87-10.18c0.16-0.99,0.37-2.14,0.37-3.18c0-1.72-1.1-2.71-2.61-2.71
		c-1.93,0-3.03,1.25-3.5,4.33l-6.47-0.78c1.2-5.58,4.64-7.98,10.07-7.98C64.84,32.6,68.18,35.63,68.18,39.59z M55.87,55.2
		c2.71,0,3.55-2.4,4.28-6.84l0.31-1.83c-4.75,0.31-7.1,3.18-7.1,5.9C53.36,54.05,54.25,55.2,55.87,55.2z"/>
	<path class="st2" d="M77.31,59h-7.1l5.84-34.81h7.1L77.31,59z"/>
	<path class="st2" d="M104.66,39.59c0,0.68-0.05,1.3-0.52,4.28l-1.72,10.54c-0.21,1.41-0.31,2.19-0.31,2.97
		c0,0.57,0.05,1.15,0.16,1.62h-6.89c-0.16-0.63-0.21-0.94-0.21-1.51c0-0.52,0.05-0.89,0.26-1.88c-1.67,3.08-3.76,4.02-6.63,4.02
		c-4.02,0-6.16-2.5-6.16-6.52c0-6.16,4.49-9.86,14.87-10.18c0.16-0.99,0.37-2.14,0.37-3.18c0-1.72-1.1-2.71-2.61-2.71
		c-1.93,0-3.03,1.25-3.5,4.33l-6.47-0.78c1.2-5.58,4.64-7.98,10.07-7.98C101.32,32.6,104.66,35.63,104.66,39.59z M92.34,55.2
		c2.71,0,3.55-2.4,4.28-6.84l0.31-1.83c-4.75,0.31-7.1,3.18-7.1,5.9C89.83,54.05,90.72,55.2,92.34,55.2z"/>
	<path class="st2" d="M117.65,36.04c1.3-2.35,3.18-3.39,5.48-3.39c4.38,0,6.73,2.92,6.73,9.03c0,3.44-0.57,6.73-1.62,9.86
		c-2.14,6.47-6.11,8.09-9.65,8.09c-3.13,0-5.43-1.2-6.21-4.59c-0.63,1.3-1.3,2.92-1.67,3.97h-3.97l5.79-34.81h7.1L117.65,36.04z
		 M117.7,54.73c1.25,0,2.24-0.89,2.82-2.71c1.1-3.55,2.14-8.19,2.14-10.96c0-2.24-0.73-3.5-2.3-3.5c-1.2,0-2.19,0.89-2.77,2.14
		c-0.37,0.78-2.5,8.04-2.5,11.79C115.09,53.42,115.98,54.73,117.7,54.73z"/>
	<path class="st2" d="M153.55,39.59c0,0.68-0.05,1.3-0.52,4.28l-1.72,10.54c-0.21,1.41-0.31,2.19-0.31,2.97
		c0,0.57,0.05,1.15,0.16,1.62h-6.89c-0.16-0.63-0.21-0.94-0.21-1.51c0-0.52,0.05-0.89,0.26-1.88c-1.67,3.08-3.76,4.02-6.63,4.02
		c-4.02,0-6.16-2.5-6.16-6.52c0-6.16,4.49-9.86,14.87-10.18c0.16-0.99,0.37-2.14,0.37-3.18c0-1.72-1.1-2.71-2.61-2.71
		c-1.93,0-3.03,1.25-3.5,4.33l-6.47-0.78c1.2-5.58,4.64-7.98,10.07-7.98C150.21,32.6,153.55,35.63,153.55,39.59z M141.23,55.2
		c2.71,0,3.55-2.4,4.28-6.84l0.31-1.83c-4.75,0.31-7.1,3.18-7.1,5.9C138.73,54.05,139.61,55.2,141.23,55.2z"/>
	<path class="st2" d="M173.85,39.91l-5.32,1.3c-0.37-2.71-1.46-3.81-3.29-3.81c-1.51,0-2.77,0.99-2.77,2.4s0.52,1.98,4.02,3.6
		c2.19,0.99,3.76,1.88,4.7,2.87c1.46,1.51,1.72,3.13,1.72,4.59c0,4.85-3.08,8.77-9.55,8.77c-3.86,0-8.98-1.2-9.5-7.78l5.79-0.83
		c0.47,2.66,1.67,3.71,3.71,3.71c1.83,0,3.03-0.73,3.03-2.35c0-1.57-0.99-2.3-4.12-3.6c-4.8-1.98-6.05-4.28-6.05-7.36
		c0-4.38,2.97-8.77,9.08-8.77C170.19,32.65,173.17,34.95,173.85,39.91z"/>
	<path class="st2" d="M196.96,39.59c0,0.68-0.05,1.3-0.52,4.28l-1.72,10.54c-0.21,1.41-0.31,2.19-0.31,2.97
		c0,0.57,0.05,1.15,0.16,1.62h-6.89c-0.16-0.63-0.21-0.94-0.21-1.51c0-0.52,0.05-0.89,0.26-1.88c-1.67,3.08-3.76,4.02-6.63,4.02
		c-4.02,0-6.16-2.5-6.16-6.52c0-6.16,4.49-9.86,14.87-10.18c0.16-0.99,0.37-2.14,0.37-3.18c0-1.72-1.1-2.71-2.61-2.71
		c-1.93,0-3.03,1.25-3.5,4.33l-6.47-0.78c1.2-5.58,4.64-7.98,10.07-7.98C193.62,32.6,196.96,35.63,196.96,39.59z M184.65,55.2
		c2.71,0,3.55-2.4,4.28-6.84l0.31-1.83c-4.75,0.31-7.1,3.18-7.1,5.9C182.14,54.05,183.03,55.2,184.65,55.2z"/>
	<path class="st2" d="M217.26,39.91l-5.32,1.3c-0.37-2.71-1.46-3.81-3.29-3.81c-1.51,0-2.77,0.99-2.77,2.4s0.52,1.98,4.02,3.6
		c2.19,0.99,3.76,1.88,4.7,2.87c1.46,1.51,1.72,3.13,1.72,4.59c0,4.85-3.08,8.77-9.55,8.77c-3.86,0-8.98-1.2-9.5-7.78l5.79-0.83
		c0.47,2.66,1.67,3.71,3.71,3.71c1.83,0,3.03-0.73,3.03-2.35c0-1.57-0.99-2.3-4.12-3.6c-4.8-1.98-6.05-4.28-6.05-7.36
		c0-4.38,2.97-8.77,9.08-8.77C213.61,32.65,216.58,34.95,217.26,39.91z"/>
	<path class="st2" d="M94.86,87.1c0,3.29-0.52,6.52-1.51,9.65c-1.98,6.37-5.58,7.88-8.82,7.88c-2.56,0-4.23-0.99-5.11-3.44
		l-1.98,11.53h-7.1l5.79-34.44h6.11l-0.57,3.5c1.67-2.87,3.81-4.12,6.52-4.12C92.51,77.65,94.86,80.83,94.86,87.1z M82.49,99.73
		c1.36,0,2.35-0.83,3.03-2.45c1.46-3.5,2.19-8.98,2.19-11.64c0-1.88-0.89-3.08-2.35-3.08c-1.04,0-2.35,0.52-3.34,3.86
		c-1.3,4.49-1.83,7.93-1.83,10.28C80.19,98.58,80.98,99.73,82.49,99.73z"/>
	<path class="st2" d="M118.76,88.35c0,2.14-0.1,3.08-0.26,3.97h-13.72c-0.16,0.89-0.21,1.88-0.21,2.87c0,2.97,0.94,4.54,2.97,4.54
		s3.13-1.1,4.12-4.44l5.79,1.04c-1.77,5.58-4.7,8.3-10.33,8.3c-6.58,0-9.6-4.44-9.6-11.06c0-8.56,4.7-15.92,12-15.92
		C114.69,77.65,118.76,81.2,118.76,88.35z M112.39,86c0-2.45-0.94-3.91-2.87-3.91c-2.14,0-3.6,2.35-4.17,6.16h6.84
		C112.34,87.41,112.39,86.84,112.39,86z"/>
	<path class="st2" d="M142.76,88.35c0,2.14-0.1,3.08-0.26,3.97h-13.72c-0.16,0.89-0.21,1.88-0.21,2.87c0,2.97,0.94,4.54,2.97,4.54
		s3.13-1.1,4.12-4.44l5.79,1.04c-1.77,5.58-4.7,8.3-10.33,8.3c-6.58,0-9.6-4.44-9.6-11.06c0-8.56,4.7-15.92,12-15.92
		C138.69,77.65,142.76,81.2,142.76,88.35z M136.39,86c0-2.45-0.94-3.91-2.87-3.91c-2.14,0-3.6,2.35-4.17,6.16h6.84
		C136.34,87.41,136.39,86.84,136.39,86z"/>
	<path class="st2" d="M166.24,87.41l-6.21,0.31c-0.05-3.08-0.94-4.64-2.66-4.64c-1.62,0-2.82,1.41-3.6,4.28
		c-0.78,2.82-1.2,5.74-1.2,8.04c0,2.5,1.2,3.81,2.82,3.81c1.72,0,2.97-1.67,3.81-4.96l6.05,0.83c-1.51,6.26-5.17,9.55-10.44,9.55
		c-6,0-9.34-4.02-9.34-10.85c0-7.1,3.44-16.12,12.16-16.12C163.21,77.65,166.24,81.15,166.24,87.41z"/>
	<path class="st2" d="M177.93,80.73c1.3-2.14,3.24-3.08,5.95-3.08c3.81,0,6.11,2.19,6.11,5.58c0,1.3-0.21,2.61-0.57,4.85L186,107
		l-6.35-3l2.66-15.97c0.26-1.57,0.42-2.66,0.42-3.03c0-1.25-0.89-1.93-2.14-1.93c-2.19,0-3.34,1.62-3.86,4.8L174.01,104h-7.1
		l5.79-34.81h7.15L177.93,80.73z"/>
</g>
</svg>
